<mxfile host="app.diagrams.net" modified="2022-05-10T23:56:30.519Z" agent="5.0 (Windows NT 10.0; Win64; x64) AppleWebKit/537.36 (KHTML, like Gecko) Chrome/101.0.4951.54 Safari/537.36" etag="KE2PjjGCLN4fH07W1i3M" version="18.0.2" type="github">
  <diagram id="FNjGqS1NA3sRU_TnQxyE" name="Page-1">
    <mxGraphModel dx="1038" dy="513" grid="1" gridSize="10" guides="1" tooltips="1" connect="1" arrows="1" fold="1" page="1" pageScale="1" pageWidth="827" pageHeight="1169" math="0" shadow="0">
      <root>
        <mxCell id="0" />
        <mxCell id="1" parent="0" />
        <mxCell id="fy5GBHzgaCS0CqgSuaZa-2" value="Cambio de WAIT_TIME en Grafana&lt;br&gt;(tecla pulsada)" style="rounded=1;whiteSpace=wrap;html=1;" vertex="1" parent="1">
          <mxGeometry x="30" y="220" width="210" height="80" as="geometry" />
        </mxCell>
        <mxCell id="fy5GBHzgaCS0CqgSuaZa-3" value="" style="shape=flexArrow;endArrow=classic;html=1;rounded=0;" edge="1" parent="1">
          <mxGeometry width="50" height="50" relative="1" as="geometry">
            <mxPoint x="250" y="259.5" as="sourcePoint" />
            <mxPoint x="300" y="260" as="targetPoint" />
          </mxGeometry>
        </mxCell>
        <mxCell id="fy5GBHzgaCS0CqgSuaZa-4" value="Cambio valores configuración en SQlite" style="rounded=1;whiteSpace=wrap;html=1;" vertex="1" parent="1">
          <mxGeometry x="310" y="220" width="150" height="80" as="geometry" />
        </mxCell>
        <mxCell id="fy5GBHzgaCS0CqgSuaZa-5" value="" style="shape=flexArrow;endArrow=classic;html=1;rounded=0;" edge="1" parent="1">
          <mxGeometry width="50" height="50" relative="1" as="geometry">
            <mxPoint x="470" y="259.5" as="sourcePoint" />
            <mxPoint x="520" y="260" as="targetPoint" />
          </mxGeometry>
        </mxCell>
        <mxCell id="fy5GBHzgaCS0CqgSuaZa-6" value="Hebra detecta el cambio de configuración" style="rounded=1;whiteSpace=wrap;html=1;" vertex="1" parent="1">
          <mxGeometry x="530" y="220" width="150" height="80" as="geometry" />
        </mxCell>
        <mxCell id="fy5GBHzgaCS0CqgSuaZa-9" value="" style="shape=flexArrow;endArrow=classic;html=1;rounded=0;" edge="1" parent="1">
          <mxGeometry width="50" height="50" relative="1" as="geometry">
            <mxPoint x="690" y="259.5" as="sourcePoint" />
            <mxPoint x="740" y="260" as="targetPoint" />
          </mxGeometry>
        </mxCell>
        <mxCell id="fy5GBHzgaCS0CqgSuaZa-10" value="FSM empieza en el estado leer" style="rounded=1;whiteSpace=wrap;html=1;" vertex="1" parent="1">
          <mxGeometry x="750" y="220" width="130" height="80" as="geometry" />
        </mxCell>
      </root>
    </mxGraphModel>
  </diagram>
</mxfile>
